<svg xmlns="http://www.w3.org/2000/svg" width="447" height="184" viewBox="0 0 447 184" fill="none">
  <path d="M383.556 112.925H428.022V183.219H440.497V101.011H383.556V112.925ZM383.556 112.925H63.4812M442.847 62.2879C441.27 66.388 441.27 73.4314 418.843 73.4314M418.843 73.4314H28.1935M418.843 73.4314C434.964 73.4314 440.5 75.6741 440.5 81.4563C440.5 83.8389 440.5 91.3379 440.5 101.01M6.53746 101.011C6.53746 91.3392 6.53746 83.8389 6.53746 81.4563C6.53746 75.6741 12.0742 73.4314 28.1935 73.4314M6.53746 101.011H63.4812V112.925M6.53746 101.011V183.219H19.0125V112.925H63.4812M63.4812 106.267H383.556M28.1935 73.4314C5.76657 73.4314 5.76758 66.388 4.19066 62.2879M6.53746 85.0998C6.53746 83.6983 6.53746 81.4204 10.0769 81.4204H436.959C440.5 81.4204 440.5 83.6983 440.5 85.0998M4.54045 17.0145C9.13095 8.32392 23.9535 5.34548 60.4325 3.48806C84.9619 2.22646 166.366 1 223.518 1C279.2 1 362.076 2.22646 386.639 3.48806C423.118 5.34548 437.906 8.32392 442.532 17.0145M9.65547 13.6147C7.48307 13.6147 5.80104 14.806 4.53944 16.9787C1.94628 21.3942 1 29.734 1 39.9664C1 55.2448 3.66346 66.2829 8.53413 66.2829C15.0872 66.2829 431.914 66.2829 438.465 66.2829C443.336 66.2829 446 55.2448 446 39.9664C446 29.734 445.053 21.3942 442.462 17.0139C441.2 14.8411 439.516 13.6498 437.344 13.6498C430.827 13.6147 16.2085 13.6147 9.65547 13.6147Z" stroke="#D9D9D9" stroke-width="0.75" stroke-miterlimit="10" stroke-linecap="round" stroke-linejoin="round"/>
</svg>