<svg width="82" height="82" viewBox="0 0 82 82" fill="none" xmlns="http://www.w3.org/2000/svg">
<path id="Vector" d="M4.55557 82C3.26483 82 2.18213 81.5626 1.30746 80.688C0.432793 79.8133 -0.00302127 78.7321 1.57632e-05 77.4444C1.57632e-05 76.1537 0.437349 75.071 1.31202 74.1963C2.18668 73.3217 3.26787 72.8858 4.55557 72.8889H9.11112V4.55557C9.11112 3.26483 9.54846 2.18213 10.4231 1.30746C11.2978 0.432793 12.379 -0.00302127 13.6667 1.57632e-05H50.1111C51.4018 1.57632e-05 52.4846 0.437349 53.3592 1.31202C54.2339 2.18668 54.6697 3.26787 54.6667 4.55557H68.3333C69.6241 4.55557 70.7068 4.9929 71.5814 5.86757C72.4561 6.74224 72.8919 7.82342 72.8889 9.11112V72.8889H77.4444C78.7352 72.8889 79.8179 73.3262 80.6925 74.2009C81.5672 75.0755 82.003 76.1567 82 77.4444C82 78.7352 81.5626 79.8179 80.688 80.6925C79.8133 81.5672 78.7321 82.003 77.4444 82H68.3333C67.0426 82 65.9599 81.5626 65.0852 80.688C64.2105 79.8133 63.7747 78.7321 63.7778 77.4444V13.6667H54.6667V77.4444C54.6667 78.7352 54.2293 79.8179 53.3547 80.6925C52.48 81.5672 51.3988 82.003 50.1111 82H4.55557ZM41 41C41 39.7093 40.5627 38.6266 39.688 37.7519C38.8133 36.8772 37.7321 36.4414 36.4444 36.4444C35.1537 36.4444 34.071 36.8818 33.1963 37.7564C32.3217 38.6311 31.8859 39.7123 31.8889 41C31.8889 42.2907 32.3262 43.3734 33.2009 44.2481C34.0756 45.1228 35.1567 45.5586 36.4444 45.5556C37.7352 45.5556 38.8179 45.1182 39.6926 44.2436C40.5672 43.3689 41.003 42.2877 41 41ZM18.2222 72.8889H45.5556V9.11112H18.2222V72.8889Z" fill="#E7E7E7"/>
</svg>
