<svg width="38" height="40" viewBox="0 0 38 40" fill="none" xmlns="http://www.w3.org/2000/svg">
<path d="M11.2534 8.29891C10.8874 8.24732 10.5142 8.31866 10.1959 8.50107H10.1684C9.42992 8.92064 8.76435 9.44892 8.19723 10.0707C7.72463 10.5989 7.46864 11.1329 7.40169 11.6479C7.36231 11.953 7.38988 12.262 7.48243 12.5538L7.51787 12.5728C8.04954 14.0852 8.74269 15.5404 9.58943 16.9097C10.6812 18.833 12.0248 20.6118 13.5868 22.202L13.6341 22.2669L13.7089 22.3203L13.7542 22.3718L13.8093 22.4175C15.457 23.9349 17.2979 25.2424 19.2875 26.3081C21.5619 27.5077 22.9423 28.0741 23.7713 28.3106V28.3221C24.0135 28.3945 24.2341 28.427 24.4566 28.427C25.1626 28.3764 25.8309 28.0985 26.3548 27.6374C26.9948 27.0881 27.5363 26.4416 27.9577 25.7226V25.7093C28.3535 24.9846 28.2196 24.3018 27.6486 23.8384C26.5015 22.8677 25.2612 22.0055 23.9446 21.2637C23.0624 20.8003 22.1664 21.0806 21.8041 21.5498L21.0302 22.4957C20.6325 22.9649 19.9118 22.9 19.9118 22.9L19.8921 22.9115C14.5143 21.5822 13.0788 16.3089 13.0788 16.3089C13.0788 16.3089 13.0118 15.5918 13.51 15.2257L14.4788 14.4704C14.9436 14.1043 15.2665 13.2384 14.7683 12.384C14.0074 11.1077 13.119 9.90678 12.1159 8.79858C11.8971 8.53777 11.5902 8.36014 11.2494 8.297L11.2534 8.29891ZM20.341 6.00651C20.0799 6.00651 19.8295 6.10698 19.6448 6.28581C19.4602 6.46464 19.3564 6.70719 19.3564 6.96009C19.3564 7.21299 19.4602 7.45554 19.6448 7.63437C19.8295 7.8132 20.0799 7.91366 20.341 7.91366C22.83 7.91366 24.8977 8.70132 26.534 10.2118C27.3749 11.0376 28.0306 12.0159 28.4599 13.0878C28.8911 14.1615 29.088 15.3077 29.0368 16.4558C29.0259 16.7087 29.1191 16.9555 29.296 17.1418C29.4729 17.3281 29.7189 17.4388 29.9801 17.4494C30.2412 17.46 30.496 17.3698 30.6884 17.1984C30.8808 17.0271 30.995 16.7888 31.006 16.5359C31.0671 15.1236 30.825 13.7144 30.2951 12.3974C29.7629 11.0741 28.956 9.87063 27.9243 8.86152L27.9046 8.84245C25.8744 6.9639 23.3066 6.00651 20.341 6.00651Z" fill="#0D2C21"/>
<path d="M20.2721 9.14187C20.011 9.14187 19.7605 9.24234 19.5759 9.42117C19.3913 9.59999 19.2875 9.84254 19.2875 10.0954C19.2875 10.3483 19.3913 10.5909 19.5759 10.7697C19.7605 10.9486 20.011 11.049 20.2721 11.049H20.3056C22.1015 11.173 23.409 11.7528 24.3246 12.7044C25.2639 13.6847 25.7503 14.9034 25.7129 16.41C25.7069 16.6629 25.8049 16.9078 25.9853 17.0907C26.1657 17.2737 26.4137 17.3797 26.6748 17.3855C26.936 17.3913 27.1888 17.2965 27.3777 17.1217C27.5666 16.947 27.676 16.7068 27.6821 16.4539C27.7293 14.4762 27.0716 12.7693 25.768 11.4076V11.4037C24.4349 10.0192 22.6056 9.28681 20.404 9.14378L20.3706 9.13996L20.2721 9.14187Z" fill="#0D2C21"/>
<path d="M20.2347 12.3363C20.1029 12.3251 19.9702 12.3397 19.8444 12.3792C19.7185 12.4187 19.6022 12.4824 19.5024 12.5664C19.4025 12.6504 19.3212 12.7531 19.2632 12.8682C19.2052 12.9834 19.1718 13.1087 19.1649 13.2366C19.158 13.3645 19.1778 13.4925 19.2231 13.6129C19.2685 13.7332 19.3383 13.8435 19.4286 13.9371C19.5189 14.0308 19.6278 14.1058 19.7487 14.1578C19.8696 14.2098 20 14.2376 20.1323 14.2397C20.9554 14.2816 21.4812 14.5219 21.812 14.8442C22.1448 15.1685 22.3929 15.6891 22.4382 16.5035C22.4406 16.6314 22.4697 16.7576 22.5235 16.8745C22.5774 16.9914 22.655 17.0965 22.7518 17.1837C22.8485 17.2709 22.9624 17.3384 23.0866 17.3821C23.2108 17.4257 23.3428 17.4448 23.4748 17.438C23.6068 17.4312 23.736 17.3987 23.8547 17.3426C23.9735 17.2864 24.0793 17.2076 24.166 17.111C24.2526 17.0144 24.3183 16.9018 24.3591 16.7801C24.3999 16.6583 24.415 16.5299 24.4034 16.4024C24.3404 15.2581 23.9702 14.2473 23.2121 13.5035C22.45 12.7597 21.4123 12.3974 20.2347 12.3363Z" fill="#0D2C21"/>
<path fill-rule="evenodd" clip-rule="evenodd" d="M9.48506 1.01741C15.7511 -0.339137 22.249 -0.339137 28.515 1.01741L29.1825 1.16045C31.0143 1.55704 32.6966 2.43772 34.0426 3.70463C35.3885 4.97154 36.3455 6.57507 36.8071 8.33705C38.3976 14.4073 38.3976 20.7662 36.8071 26.8364C36.3455 28.5984 35.3885 30.2019 34.0426 31.4688C32.6966 32.7357 31.0143 33.6164 29.1825 34.013L28.513 34.156C24.5885 35.006 20.5615 35.3263 16.5465 35.1077L11.3223 39.6353C11.1253 39.8061 10.8847 39.9225 10.6254 39.9725C10.3661 40.0225 10.0977 40.0041 9.84826 39.9194C9.59881 39.8346 9.37741 39.6866 9.20719 39.4907C9.03696 39.2948 8.92415 39.0582 8.88053 38.8057L8.01607 33.8051C6.3584 33.3056 4.86071 32.4026 3.66614 31.1826C2.47157 29.9625 1.62004 28.4661 1.19294 26.8364C-0.397645 20.7662 -0.397645 14.4073 1.19294 8.33705C1.65455 6.57507 2.61151 4.97154 3.9575 3.70463C5.3035 2.43772 6.98581 1.55704 8.81752 1.16045L9.48506 1.01741ZM27.8711 3.80757C22.0291 2.54276 15.9709 2.54276 10.129 3.80757L9.45946 3.95251C8.16123 4.23412 6.969 4.85871 6.01516 5.75693C5.06131 6.65515 4.38319 7.79185 4.05609 9.04079C2.58654 14.6492 2.58654 20.5243 4.05609 26.1327C4.38334 27.3819 5.06176 28.5187 6.01598 29.417C6.97019 30.3152 8.16284 30.9397 9.46143 31.2209L9.63865 31.2591C9.92535 31.3212 10.1864 31.4647 10.3885 31.6712C10.5905 31.8778 10.7243 32.138 10.7729 32.4186L11.3518 35.7714L15.0381 32.5769C15.1853 32.449 15.3575 32.351 15.5446 32.2887C15.7317 32.2265 15.9297 32.2013 16.127 32.2146C20.0635 32.485 24.0197 32.1991 27.8711 31.3659L28.5386 31.2209C29.8372 30.9397 31.0299 30.3152 31.9841 29.417C32.9383 28.5187 33.6167 27.3819 33.944 26.1327C35.413 20.5256 35.413 14.6497 33.944 9.04079C33.6167 7.7916 32.9383 6.65474 31.9841 5.7565C31.0299 4.85825 29.8372 4.2338 28.5386 3.95251L27.8711 3.80757Z" fill="#0D2C21"/>
</svg>
