<svg width="22" height="30" viewBox="0 0 22 30" fill="none" xmlns="http://www.w3.org/2000/svg">
<path d="M3.59099 30V0H11.3508C14.9556 0 17.6248 0.742297 19.3583 2.22689C21.1194 3.71148 22 5.86835 22 8.69748C22 10.6022 21.5735 12.2409 20.7204 13.6134C19.8674 14.958 18.6016 15.9944 16.9231 16.7227C15.272 17.451 13.222 17.8151 10.773 17.8151H7.30582V30H3.59099ZM0 24.2857V21.5546H14.1163V24.2857H0ZM0 17.8151V14.6218H9.45216V17.8151H0ZM10.2364 14.6218C11.9149 14.6218 13.3321 14.4398 14.4878 14.0756C15.671 13.7115 16.5791 13.1092 17.212 12.2689C17.8449 11.4286 18.1613 10.2801 18.1613 8.82353C18.1613 6.91877 17.5835 5.5042 16.4278 4.57983C15.272 3.65546 13.4697 3.19328 11.0206 3.19328H7.30582V14.6218H10.2364Z" fill="white"/>
</svg>
