<svg width="27" height="27" viewBox="0 0 27 27" fill="none" xmlns="http://www.w3.org/2000/svg">
<path d="M2.0125 19.825V24.5125H6.7L20.525 10.675L15.8375 5.9875L2.0125 19.825ZM26.525 21.2125L21.2125 26.525L14.7125 20.025L16.925 17.8125L18.175 19.0625L21.2625 15.9625L23.0375 17.7375L21.2125 19.5125L22.5375 20.7625L24.3125 19.0125L26.525 21.2125ZM6.525 11.8L0 5.3125L5.3125 0L7.5125 2.2125L4.425 5.3125L5.7625 6.6375L8.8375 3.5375L10.6125 5.3125L8.8375 7.075L10.0875 8.325L6.525 11.8ZM24.15 7.0125C24.6375 6.525 24.6375 5.7625 24.15 5.25L21.225 2.375C20.7625 1.8875 19.95 1.8875 19.4625 2.375L17.1625 4.6625L21.85 9.35L24.15 7.0125Z" fill="white"/>
</svg>
