<svg width="24" height="24" viewBox="0 0 24 24" fill="none" xmlns="http://www.w3.org/2000/svg">
<path d="M12.125 0.5C5.70467 0.5 0.5 5.70467 0.5 12.125C0.5 18.5453 5.70467 23.75 12.125 23.75C18.5453 23.75 23.75 18.5453 23.75 12.125C23.75 5.70467 18.5453 0.5 12.125 0.5ZM17.5134 8.40594C17.3384 10.2441 16.5815 14.7049 16.1962 16.7638C16.0332 17.6349 15.7123 17.927 15.4017 17.9555C14.7267 18.0177 14.214 17.5094 13.5602 17.0808C12.537 16.4101 11.959 15.9926 10.9658 15.3381C9.81809 14.5818 10.5621 14.1663 11.2162 13.4866C11.3874 13.3088 14.3619 10.6033 14.4194 10.3579C14.4266 10.3272 14.4335 10.2125 14.3653 10.1524C14.2972 10.0922 14.1971 10.1126 14.1246 10.1289C14.022 10.1522 12.3875 11.2326 9.22114 13.37C8.75723 13.6885 8.33702 13.8437 7.96048 13.8356C7.54541 13.8267 6.74698 13.601 6.15341 13.408C5.42539 13.1713 4.84677 13.0462 4.89716 12.6443C4.92341 12.435 5.21169 12.2209 5.762 12.0021C9.15094 10.5256 11.4108 9.5522 12.5414 9.08183C15.7698 7.739 16.4406 7.50575 16.8779 7.49797C16.9741 7.49637 17.1891 7.52019 17.3284 7.6332C17.421 7.71371 17.4801 7.82606 17.4938 7.94802C17.5174 8.09945 17.524 8.25305 17.5134 8.40594Z" fill="white"/>
</svg>
