<svg width="24" height="25" viewBox="0 0 24 25" fill="none" xmlns="http://www.w3.org/2000/svg">
<path d="M20.6118 4.24206C19.5407 3.13078 18.2648 2.24967 16.8587 1.65013C15.4525 1.05059 13.9442 0.744624 12.4217 0.750071C6.04259 0.750071 0.843468 6.09005 0.843468 12.642C0.843468 14.742 1.3809 16.782 2.38568 18.582L0.75 24.75L6.88379 23.094C8.57789 24.042 10.4823 24.546 12.4217 24.546C18.8009 24.546 24 19.206 24 12.654C24 9.47405 22.7966 6.48605 20.6118 4.24206ZM12.4217 22.53C10.6926 22.53 8.99849 22.05 7.5147 21.15L7.1642 20.934L3.51897 21.918L4.48869 18.27L4.25503 17.898C3.29435 16.3224 2.78425 14.5011 2.78291 12.642C2.78291 7.19405 7.10578 2.75407 12.41 2.75407C14.9804 2.75407 17.3989 3.78606 19.2098 5.65806C20.1065 6.57481 20.8171 7.66525 21.3004 8.86616C21.7838 10.0671 22.0302 11.3546 22.0255 12.654C22.0489 18.102 17.726 22.53 12.4217 22.53ZM17.7026 15.138C17.4106 14.994 15.9852 14.274 15.7281 14.166C15.4594 14.07 15.2725 14.022 15.0739 14.31C14.8753 14.61 14.3261 15.282 14.1626 15.474C13.999 15.678 13.8237 15.702 13.5317 15.546C13.2396 15.402 12.3049 15.078 11.2067 14.07C10.3421 13.278 9.7696 12.306 9.59435 12.006C9.43078 11.706 9.57098 11.55 9.72286 11.394C9.85138 11.262 10.0149 11.046 10.1552 10.878C10.2954 10.71 10.3538 10.578 10.4472 10.386C10.5407 10.182 10.494 10.014 10.4239 9.87004C10.3538 9.72605 9.7696 8.26205 9.53593 7.66205C9.30226 7.08605 9.05691 7.15805 8.88166 7.14605H8.32085C8.12224 7.14605 7.81847 7.21805 7.54975 7.51805C7.29271 7.81805 6.54497 8.53805 6.54497 10.002C6.54497 11.466 7.5848 12.882 7.725 13.074C7.8652 13.278 9.7696 16.278 12.6671 17.562C13.3564 17.874 13.8938 18.054 14.3144 18.186C15.0038 18.414 15.6347 18.378 16.1371 18.306C16.6979 18.222 17.8545 17.586 18.0882 16.89C18.3335 16.194 18.3335 15.606 18.2518 15.474C18.17 15.342 17.9947 15.282 17.7026 15.138Z" fill="white"/>
</svg>
